
<svg version="1.1" id="Layer_1" xmlns="http://www.w3.org/2000/svg" xmlns:xlink="http://www.w3.org/1999/xlink" x="0px" y="0px"
	 viewBox="0 0 235.987 94.657" style="enable-background:new 0 0 235.987 94.657;" xml:space="preserve">
<g>
	<path style="fill:#1D4A6A;" d="M235.987,64.762c-1.534-2.239-2.98-4.327-4.339-6.264c-1.182-1.66-2.377-3.339-3.584-5.037
		c-1.208-1.698-2.151-3.012-2.83-3.943c2.062-1.484,3.698-2.886,4.905-4.207s2.138-2.717,2.792-4.188
		c0.654-1.472,1.069-3.094,1.245-4.868c0.176-1.773,0.264-3.867,0.264-6.282v-3.962h-11.432v9.999c0,1.233-0.026,2.233-0.076,3
		c-0.05,0.767-0.151,1.396-0.302,1.886c-0.151,0.491-0.371,0.919-0.66,1.283c-0.289,0.365-0.66,0.749-1.113,1.151
		c-0.478-0.604-1.013-1.32-1.604-2.151c-0.591-0.83-1.22-1.71-1.886-2.641c-0.667-0.93-1.353-1.88-2.056-2.848
		c-0.705-0.969-1.384-1.918-2.038-2.849c-1.61-2.163-3.233-4.44-4.867-6.83h-12.603v0.793c1.333,1.761,2.591,3.459,3.773,5.093
		c1.032,1.384,2.063,2.787,3.094,4.208c1.032,1.421,1.862,2.522,2.491,3.301c-1.711,1.585-3.107,2.956-4.188,4.113
		c-1.082,1.157-1.931,2.433-2.547,3.83c-0.617,1.396-1.026,3.088-1.227,5.074c-0.201,1.988-0.301,4.604-0.301,7.849v5.244h11.055
		v-6.037c0-1.735-0.019-3.301-0.057-4.697c-0.037-1.396,0-2.635,0.113-3.717c0.114-1.081,0.308-2.037,0.585-2.868
		c0.277-0.83,0.755-1.597,1.434-2.301c0.453,0.654,0.987,1.434,1.604,2.339c0.616,0.906,1.276,1.887,1.981,2.943
		c0.704,1.057,1.439,2.139,2.207,3.245c0.767,1.107,1.515,2.202,2.245,3.283c1.685,2.465,3.484,5.069,5.396,7.81h12.526V64.762z
		 M192.233,26.011h-10.98v39.505h10.98V26.011z M177.444,36.897c-0.428-2.503-1.17-4.553-2.226-6.15
		c-1.057-1.597-2.49-2.786-4.301-3.566c-1.812-0.779-4.075-1.17-6.792-1.17h-22.111v18.187c0,1.786,0.415,3.069,1.245,3.849
		c0.83,0.78,1.937,1.169,3.321,1.169h11.885v-7.659h-4.641c-0.252,0-0.453-0.063-0.604-0.189c-0.15-0.125-0.226-0.453-0.226-0.981
		v-5.622h10.339c0.477,0,0.93,0.101,1.358,0.302c0.427,0.202,0.754,0.617,0.981,1.245c0.201,0.554,0.402,1.686,0.604,3.396
		c0.201,1.711,0.301,3.723,0.301,6.037c0,4.478-0.327,7.484-0.981,9.018c-0.226,0.478-0.553,0.83-0.981,1.056
		c-0.428,0.227-0.88,0.34-1.358,0.34h-21.016v9.357h21.582c2.717,0,4.986-0.415,6.811-1.245c1.823-0.83,3.295-2.081,4.414-3.754
		c1.119-1.673,1.906-3.742,2.358-6.207c0.453-2.465,0.68-5.32,0.68-8.565C178.086,42.349,177.871,39.4,177.444,36.897
		 M136.586,26.011h-19.62v9.358h9.244l-1.207,14.677c-0.277,2.742-0.943,4.604-2,5.585c-1.056,0.981-2.742,1.471-5.056,1.471h-0.377
		c-1.233,0-2.277-0.081-3.132-0.245c-0.855-0.163-1.541-0.472-2.056-0.925c-0.516-0.452-0.9-1.094-1.151-1.924
		c-0.252-0.83-0.403-1.911-0.453-3.245l-2.196-36.788H97.376l2.573,36.562c0.251,3.597,0.893,6.527,1.924,8.791
		c1.032,2.264,2.604,3.962,4.717,5.094c1.283,0.679,2.767,1.144,4.452,1.396c1.685,0.251,3.635,0.377,5.849,0.377h1.622
		c3.748,0,6.811-0.629,9.188-1.886c2.377-1.258,4.231-3.119,5.565-5.584c0.729-1.333,1.27-2.811,1.622-4.434
		c0.352-1.622,0.654-3.49,0.906-5.603l2.188-20.413C138.133,26.766,137.668,26.011,136.586,26.011 M94.696,26.011h-10.98v22.677
		h10.98V26.011z M80.587,38.236c0-4.326-1.032-7.508-3.094-9.546c-2.063-2.037-5.207-3.056-9.433-3.056h-3.622
		c-1.334,0-2.516,0.145-3.547,0.434c-1.032,0.289-1.912,0.636-2.641,1.038c-0.604,0.428-1.189,0.975-1.755,1.641
		c-0.566,0.667-1.069,1.409-1.509,2.226c-0.44,0.818-0.805,1.641-1.094,2.471c-0.29,0.831-0.51,1.573-0.66,2.227h-0.151l-3.396-9.66
		H38.479L44.742,44.5L39.95,65.516h11.131l5.622-25.129c0.427-1.786,1.144-3.182,2.151-4.188c1.005-1.006,2.401-1.509,4.188-1.509
		h1.094c1.962,0,3.364,0.434,4.207,1.301c0.842,0.868,1.264,2.183,1.264,3.943v16.225h-9.32v9.357h20.3V38.236z M35.599,28.313
		v-0.491c0-1.207-0.34-1.811-1.019-1.811H14.583V13.975H3.603v19.998c0,0.73,0.1,1.145,0.302,1.245
		c0.201,0.101,0.515,0.151,0.943,0.151h18.451l-2.302,15.922c-0.302,2.164-1.139,3.61-2.509,4.34
		c-1.372,0.729-2.887,1.094-4.547,1.094h-1.773v8.791c0.477,0.1,1.05,0.201,1.717,0.302c0.666,0.1,1.339,0.151,2.018,0.151
		c2.062,0,3.968-0.258,5.716-0.773c1.749-0.516,3.302-1.352,4.66-2.51c1.359-1.156,2.503-2.66,3.434-4.509
		c0.93-1.848,1.635-4.118,2.113-6.81l3.698-22.488C35.574,28.678,35.599,28.489,35.599,28.313"/>
</g>
<g>
	<path style="fill:#29ABE2;" d="M78.001,78.833c0.129-0.044,0.189-0.101,0.258-0.176c0.723-0.778,1.485-1.522,2.591-1.699
		c0.753-0.12,1.51-0.106,2.239,0.19c0.343,0.14,0.521,0.361,0.617,0.73c0.077,0.295,0.227,0.575,0.282,0.885
		c0.074,0.411,0.12,0.829,0.273,1.245c0.37-0.574,0.837-1.081,1.313-1.562c0.565-0.572,1.135-1.178,1.924-1.468
		c0.716-0.263,1.444-0.311,2.193-0.13c0.442,0.107,0.637,0.327,0.735,0.799c0.147,0.705,0.071,1.349-0.137,2.019
		c-0.231,0.745-0.531,1.463-0.774,2.201c-0.316,0.958-0.669,1.912-0.682,2.946c-0.007,0.564,0.159,1.065,0.474,1.523
		c0.066,0.095,0.147,0.145,0.275,0.054c0.379-0.269,0.659-0.625,0.95-0.982c0.294-0.36,0.528-0.752,0.766-1.145
		c0.384-0.633,0.763-1.269,1.137-1.907c0.574-0.98,1.163-1.947,1.962-2.766c0.352-0.361,0.668-0.76,1.046-1.09
		c0.579-0.507,1.193-0.993,1.925-1.254c0.32-0.114,0.683-0.153,1.029-0.215c0.527-0.095,1.036-0.27,1.573-0.327
		c0.545-0.058,1.056-0.004,1.589,0.156c0.383,0.115,0.74,0.313,1.119,0.389c0.651,0.129,1.065,0.574,1.471,1.003
		c0.366,0.387,0.674,0.844,0.876,1.353c0.028,0.07,0.055,0.124,0.021,0.216c-0.048,0.131-0.066,0.278,0.11,0.379
		c0.142,0.081,0.181,0.724,0.094,0.861c-0.05,0.078-0.15,0.125-0.26,0.094c-0.286-0.08-0.579-0.094-0.872-0.121
		c-0.167-0.015-0.216,0.037-0.283,0.157c-0.286,0.509-0.505,1.056-0.85,1.531c-0.415,0.571-0.755,1.189-1.067,1.816
		c-0.229,0.46-0.394,0.958-0.374,1.499c0.021,0.58,0.501,0.818,0.946,0.554c0.419-0.249,0.901-0.376,1.282-0.687
		c0.485-0.395,1.043-0.683,1.54-1.065c0.243-0.186,0.443-0.437,0.741-0.567c0.195-0.085,0.313-0.297,0.152-0.488
		c-0.167-0.198-0.156-0.443-0.263-0.649c-0.066-0.127,0.093-0.124,0.092-0.187c-0.003-0.125,0.028-0.236-0.028-0.384
		c-0.117-0.307,0.02-0.659,0.141-0.94c0.065-0.15,0.212-0.23,0.082-0.411c-0.008-0.011-0.023-0.101,0.039-0.075
		c0.304,0.127,0.023-0.126,0.099-0.156c0.016-0.006-0.018-0.141-0.005-0.146c0.274-0.095,0.289-0.285,0.19-0.51
		c-0.067-0.153-0.025-0.196,0.132-0.184c0.089,0.007,0.103-0.088,0.069-0.123c-0.343-0.352-0.093-0.68,0.089-0.951
		c0.139-0.206,0.208-0.432,0.255-0.641c0.105-0.47,0.359-0.86,0.572-1.271c0.133-0.257,0.226-0.53,0.357-0.785
		c0.154-0.301,0.317-0.597,0.474-0.895c0.037-0.071,0.085-0.176,0.168-0.096c0.211,0.2,0.194-0.033,0.265-0.118
		c0.06-0.072-0.078-0.258,0.146-0.24c0.035,0.003,0.001-0.085-0.037-0.115c-0.162-0.128-0.171-0.142-0.05-0.314
		c0.147-0.208,0.241-0.449,0.435-0.628c0.071-0.065,0.089-0.187,0.132-0.285c0.117-0.003,0.109,0.245,0.24,0.145
		c0.144-0.11,0.214-0.29,0.258-0.469c0.023-0.092-0.318-0.016-0.1-0.217c0.091-0.084,0.15-0.203,0.221-0.309
		c0.229-0.343,0.417-0.707,0.695-1.025c0.219-0.251,0.482-0.485,0.604-0.824c0.052-0.144,0.182-0.278,0.308-0.374
		c0.5-0.381,0.848-0.918,1.349-1.293c0.471-0.353,1.004-0.614,1.585-0.662c0.562-0.046,1.104,0.171,1.6,0.428
		c0.355,0.184,0.642,1.224,0.495,1.605c-0.023,0.059,0.014,0.089,0.023,0.128c0.133,0.55,0.037,1.061-0.235,1.551
		c-0.069,0.124-0.07,0.285-0.133,0.414c-0.088,0.18-0.17,0.158-0.195-0.075c-0.063,0.161-0.062,0.29-0.06,0.419
		c0.005,0.266-0.286,0.379-0.323,0.624c-0.057,0.377-0.402,0.612-0.483,0.977c-0.012,0.056-0.008,0.116-0.015,0.237
		c0.076-0.167,0.19-0.144,0.308-0.163c-0.288,0.117-0.122,0.457-0.371,0.626c-0.384,0.26-0.708,0.594-0.843,1.067
		c-0.021,0.074-0.094,0.144-0.161,0.192c-0.095,0.069-0.155,0.109-0.099,0.256c0.029,0.076,0.159,0.348-0.171,0.289
		c-0.057-0.01-0.052,0.138-0.034,0.148c0.214,0.115,0.034,0.229-0.013,0.312c-0.105,0.186-0.232,0.413-0.385,0.503
		c-0.191,0.112-0.196,0.477-0.518,0.383c-0.024,0.09-0.164,0.129-0.093,0.27c0.024,0.048-0.057,0.157-0.103,0.23
		c-0.073,0.114-0.26,0.171-0.168,0.371c0.007,0.015-0.047,0.206-0.194,0.174c-0.046-0.01-0.088-0.001-0.084,0.048
		c0.022,0.343-0.239,0.519-0.416,0.752c-0.131,0.173-0.343,0.323-0.279,0.602c0.013,0.057-0.062,0.135-0.096,0.203
		c-0.294-0.25-0.278,0.182-0.458,0.212c-0.147,0.024-0.175,0.229-0.338,0.299c-0.102,0.044-0.058,0.213,0.159,0.232
		c-0.175,0.067-0.41,0.005-0.293,0.322c0.05,0.134-0.246,0.263-0.364,0.42c-0.301,0.397-0.705,0.707-1.069,1.037
		c-0.226,0.205-0.384,0.536-0.757,0.601c0.449,0.502,0.916,0.915,1.504,1.218c0.413,0.212,0.824,0.413,1.264,0.542
		c0.484,0.142,0.981,0.229,1.486,0.284c0.551,0.06,1.099,0.112,1.654,0.12c0.462,0.007,0.916-0.056,1.373-0.082
		c0.303-0.017,0.604-0.098,0.906-0.101c0.535-0.007,1.049-0.153,1.575-0.212c0.621-0.07,1.242-0.156,1.854-0.281
		c0.541-0.11,1.093-0.139,1.635-0.262c0.292-0.066,0.613-0.217,0.943-0.102c0.044,0.015,0.112-0.023,0.164-0.048
		c0.466-0.229,0.968-0.128,1.507-0.196c-0.186,0.287-0.424,0.455-0.67,0.474c-0.804,0.061-1.512,0.461-2.293,0.593
		c-0.336,0.057-0.667,0.137-1.002,0.201c-0.105,0.02-0.221-0.003-0.267,0.137c-0.02,0.061-0.079,0.061-0.107,0.002
		c-0.036-0.077-0.078-0.083-0.134-0.031c-0.34,0.317-0.791,0.192-1.186,0.292c-0.358,0.091-0.743,0.04-1.088,0.229
		c-0.138,0.076-0.321,0.072-0.485,0.097c-1.658,0.251-3.328,0.18-4.995,0.175c-0.241-0.001-0.48-0.088-0.722-0.112
		c-0.456-0.045-0.91-0.123-1.342-0.254c-0.532-0.161-1.099-0.264-1.542-0.65c-0.144-0.125-0.361-0.025-0.522-0.161
		c-0.228-0.193-0.442-0.402-0.678-0.588c-0.103-0.081-0.233-0.051-0.244-0.037c-0.309,0.37-0.754,0.542-1.137,0.803
		c-0.283,0.192-0.551,0.402-0.855,0.566c-0.254,0.137-0.503,0.225-0.79,0.201c-0.04-0.003-0.088-0.014-0.118,0.003
		c-0.455,0.255-0.969,0.344-1.454,0.513c-0.072,0.025-0.157,0.02-0.236,0.02c-0.653-0.003-1.316,0.071-1.949-0.127
		c-0.49-0.154-0.956-0.388-1.206-0.882c-0.058-0.115-0.111-0.117-0.195-0.066c-0.872,0.528-1.831,0.683-2.831,0.654
		c-0.545-0.015-1.098,0.077-1.634-0.064c-0.303-0.08-0.608-0.147-0.906-0.274c-0.458-0.196-0.749-0.526-1.005-0.919
		c-0.097-0.15-0.187-0.118-0.302,0.001c-0.315,0.326-0.578,0.702-0.957,0.968c-0.153,0.108-0.364,0.095-0.488,0.253
		c0.01,0.018,0.017,0.035,0.028,0.049c0.087,0.103,0.337,0.019,0.308,0.242c-0.027,0.204-0.212,0.279-0.376,0.351
		c-0.397,0.174-0.817,0.091-1.216,0.041c-0.519-0.065-1.055-0.115-1.534-0.348c-0.489-0.238-0.94-0.524-1.253-1.009
		c-0.327-0.508-0.514-1.072-0.505-1.64c0.009-0.57,0.04-1.155,0.218-1.726c0.122-0.389,0.227-0.788,0.345-1.182
		c0.175-0.586,0.414-1.149,0.6-1.73c0.158-0.493,0.294-0.994,0.45-1.525c-0.236,0.05-0.32,0.221-0.442,0.337
		c-0.467,0.446-0.876,0.947-1.25,1.469c-0.291,0.406-0.576,0.821-0.828,1.258c-0.486,0.841-0.96,1.689-1.409,2.551
		c-0.431,0.828-0.863,1.656-1.353,2.451c-0.065,0.105-0.145,0.187-0.228,0.269c-0.122,0.12-0.216,0.232-0.218,0.43
		c-0.002,0.19-0.102,0.352-0.35,0.356c-0.156,0.003-0.31,0.065-0.467,0.087c-0.403,0.057-0.798-0.083-1.201-0.059
		c-0.027,0.002-0.058-0.034-0.082-0.028c-0.505,0.122-0.576-0.31-0.715-0.6c-0.075-0.156-0.034-0.38,0.137-0.521
		c0.359-0.296,0.426-0.728,0.532-1.142c0.026-0.104,0.039-0.215,0.086-0.309c0.184-0.362,0.182-0.781,0.342-1.141
		c0.269-0.605,0.387-1.256,0.601-1.877c0.156-0.452,0.29-0.924,0.404-1.396c0.142-0.586,0.117-1.176,0.128-1.768
		c0.003-0.181-0.036-0.351-0.063-0.526c-0.052-0.332-0.186-0.397-0.438-0.189c-0.186,0.153-0.382,0.283-0.582,0.414
		c-0.217,0.143-0.506,0.359-0.574,0.551c-0.143,0.402-0.516,0.567-0.71,0.905c-0.214,0.373-0.379,0.786-0.69,1.099
		c-0.143,0.144-0.129,0.378-0.234,0.488c-0.156,0.162-0.16,0.365-0.266,0.526c-0.223,0.338-0.267,0.776-0.542,1.069
		c-0.287,0.307-0.496,0.668-0.694,1.017c-0.175,0.309-0.463,0.559-0.506,0.969c-0.031,0.3-0.235,0.585-0.375,0.87
		c-0.279,0.567-0.573,1.13-0.56,1.787c0.004,0.171-0.067,0.198-0.212,0.192c-0.319-0.013-0.624,0.09-0.926,0.134
		c-0.313,0.046-0.702,0.09-1.042-0.106c-0.208-0.12-0.261-0.273-0.216-0.464c0.193-0.824,0.271-1.67,0.516-2.487
		c0.176-0.59,0.41-1.155,0.605-1.735c0.146-0.433,0.314-0.854,0.488-1.274c0.321-0.778,0.533-1.594,0.739-2.405
		c0.144-0.567,0.034-1.171,0.039-1.759c0.002-0.158-0.122-0.114-0.186-0.053c-0.245,0.233-0.676,0.216-0.799,0.637
		c-0.033,0.113-0.169,0.298-0.38,0.337c-0.08,0.015-0.195,0.12-0.207,0.284c-0.006,0.089-0.043,0.303-0.256,0.272
		c-0.017-0.002-0.165,0.325-0.167,0.367c-0.004,0.107-0.125,0.09-0.169,0.177c-0.25,0.487-0.612,0.89-0.965,1.306
		c-0.282,0.332-0.577,0.659-0.825,1.027c-0.303,0.449-0.506,0.967-0.853,1.373c-0.463,0.541-0.89,1.119-1.436,1.585
		c-0.153,0.13-0.263,0.296-0.409,0.433c-0.543,0.512-1.23,0.697-1.908,0.907c-0.213,0.066-0.447,0.074-0.654,0.152
		c-0.612,0.23-1.277-0.096-1.596-0.594c-0.107-0.167-0.216-0.344-0.345-0.504c-0.109-0.135-0.152-0.303-0.179-0.487
		c-0.059-0.404-0.163-0.801-0.264-1.197c-0.033-0.131-0.017-0.257-0.025-0.385c-0.004-0.069-0.036-0.125-0.089-0.144
		c-0.087-0.031-0.068,0.082-0.099,0.1c-0.349,0.206-0.355,0.647-0.624,0.901c-0.264,0.249-0.533,0.494-0.818,0.717
		c-0.456,0.357-0.976,0.623-1.496,0.862c-0.709,0.325-1.417,0.642-2.229,0.724c-0.875,0.088-1.713,0.004-2.525-0.265
		c-0.77-0.255-1.48-0.635-2.117-1.172c-0.48-0.404-0.899-0.844-1.304-1.318c-0.556-0.651-0.925-1.404-1.333-2.139
		c-0.284-0.513-0.49-1.062-0.646-1.621c-0.168-0.604-0.288-1.221-0.341-1.854c-0.062-0.742,0.048-1.47,0.069-2.204
		c0.023-0.792,0.145-1.579,0.277-2.35c0.092-0.537,0.167-1.104,0.384-1.627c0.14-0.336,0.231-0.692,0.319-1.05
		c0.121-0.491,0.34-0.96,0.542-1.428c0.245-0.566,0.497-1.132,0.782-1.679c0.329-0.63,0.67-1.257,1.061-1.85
		c0.246-0.374,0.502-0.746,0.746-1.122c0.155-0.24,0.225-0.533,0.433-0.749c0.035-0.036,0.03-0.121-0.058-0.131
		c-0.059-0.007-0.128-0.02-0.178,0.003c-0.418,0.19-0.87,0.222-1.313,0.282c-0.473,0.064-0.886,0.298-1.339,0.415
		c-0.65,0.169-1.167,0.601-1.761,0.882c-0.389,0.184-0.801,0.228-1.216,0.267c-0.238,0.022-0.479,0.005-0.719,0.004
		c-0.297-0.002-0.588-0.244-0.584-0.534c0.003-0.201,0.156-0.372,0.32-0.468c0.602-0.352,1.226-0.657,1.871-0.929
		c0.664-0.28,1.344-0.515,2.042-0.653c0.697-0.137,1.379-0.356,2.107-0.368c0.543-0.009,1.086-0.141,1.625-0.237
		c0.122-0.022,0.197-0.15,0.255-0.271c0.211-0.437,0.453-0.877,0.743-1.245c0.406-0.515,0.646-1.12,1.064-1.63
		c0.535-0.651,0.936-1.411,1.412-2.112c0.496-0.733,1.054-1.424,1.549-2.155c0.396-0.585,0.871-1.112,1.228-1.725
		c0.154-0.264,0.415-0.446,0.583-0.709c0.369-0.576,0.791-1.118,1.111-1.725c0.04-0.076,0.06-0.165,0.081-0.25
		c0.129-0.531,0.304-0.704,0.844-0.687c0.426,0.013,0.855,0.084,1.26,0.236c0.244,0.092,0.364,0.445,0.296,0.683
		c-0.15,0.526-0.47,0.946-0.767,1.392c-0.23,0.346-0.479,0.674-0.73,1.003c-0.374,0.492-0.749,0.983-1.144,1.459
		c-0.297,0.358-0.527,0.769-0.802,1.146c-0.515,0.706-1.059,1.392-1.558,2.109c-0.497,0.715-0.962,1.452-1.423,2.191
		c-0.219,0.351-0.515,0.653-0.7,1.018c-0.163,0.321-0.39,0.599-0.548,0.92c-0.064,0.129-0.018,0.19,0.118,0.181
		c0.375-0.026,0.749,0.005,1.127-0.032c0.263-0.026,0.554-0.1,0.83,0.02c0.164,0.071,0.329-0.058,0.493-0.043
		c0.561,0.054,1.133-0.094,1.688,0.107c0.146,0.053,0.304-0.049,0.464-0.057c0.627-0.033,1.234,0.221,1.861,0.124
		c0.531-0.083,1.057,0.027,1.586,0.01c0.119-0.004,0.233,0.057,0.365,0.057c0.14,0,0.255,0.063,0.417-0.021
		c0.117-0.061,0.317,0.021,0.475,0.06c0.2,0.049,0.384,0.107,0.602,0.031c0.152-0.053,0.319-0.018,0.486,0.097
		c0.219,0.151,0.516,0.09,0.774,0.113c0.194,0.017,0.3,0.093,0.409,0.218c0.071,0.082,0.131,0.175,0.24,0.216
		c0.139,0.052,0.161,0.036,0.183-0.119c0.011-0.079,0.068-0.117,0.147-0.118c0.097-0.001,0.193,0,0.333,0
		c-0.09,0.104-0.153,0.176-0.241,0.277c0.265,0.019,0.494,0.098,0.745,0.122c0.145,0.014,0.364,0.107,0.537,0.195
		c-0.025,0.037,0.02,0.062,0.026,0.054c0.207-0.272,0.296,0.046,0.507,0.103c-0.59,0.108-1.113,0.116-1.648,0.037
		c-0.48-0.071-0.969-0.091-1.454-0.13c-0.81-0.064-1.62-0.105-2.432-0.138c-0.725-0.029-1.449-0.122-2.176-0.099
		c-0.944,0.03-1.884-0.115-2.829-0.049c-0.894,0.062-1.79,0.019-2.684,0.056c-0.548,0.023-1.094,0.117-1.646,0.11
		c-0.087-0.001-0.147,0.024-0.198,0.1c-0.244,0.367-0.477,0.741-0.719,1.108c-0.258,0.393-0.499,0.8-0.745,1.198
		c-0.224,0.362-0.436,0.743-0.638,1.124c-0.272,0.513-0.569,1.014-0.829,1.533c-0.148,0.295-0.284,0.602-0.436,0.891
		c-0.191,0.364-0.221,0.777-0.457,1.131c-0.239,0.358-0.295,0.815-0.405,1.238c-0.217,0.834-0.365,1.681-0.528,2.526
		c-0.154,0.802-0.17,1.608-0.185,2.413c-0.008,0.401-0.057,0.824,0.035,1.211c0.127,0.534,0.169,1.087,0.414,1.603
		c0.132,0.279,0.205,0.601,0.353,0.884c0.121,0.233,0.213,0.484,0.396,0.682c0.163,0.177,0.252,0.406,0.371,0.607
		c0.494,0.837,1.182,1.477,1.943,2.05c0.536,0.404,1.122,0.677,1.791,0.832c0.463,0.107,0.915,0.201,1.387,0.21
		c0.619,0.012,1.096-0.284,1.508-0.711c0.545-0.566,1.01-1.199,1.487-1.82c0.28-0.364,0.539-0.757,0.777-1.144
		c0.324-0.529,0.704-1.015,1.034-1.536c0.321-0.507,0.505-1.071,0.698-1.634c0.151-0.438,0.292-0.879,0.436-1.318
		c0.084-0.257,0.222-0.519,0.376-0.74c0.13-0.188,0.16-0.359,0.139-0.551c-0.038-0.348,0.16-0.491,0.436-0.627
		c0.353-0.175,0.716-0.292,1.101-0.367c0.388-0.075,0.987,0.24,1.096,0.613c0.026,0.089,0.031,0.224-0.019,0.289
		c-0.461,0.614-0.617,1.359-0.897,2.049c-0.214,0.528-0.475,1.047-0.602,1.597c-0.123,0.529-0.331,1.041-0.343,1.603
		c-0.009,0.384-0.125,0.768-0.193,1.151c-0.146,0.817-0.106,1.609,0.141,2.398c0.077,0.246,0.184,0.457,0.34,0.668
		c0.144,0.194,0.206,0.127,0.303,0.008c0.464-0.562,0.917-1.133,1.387-1.689c0.493-0.584,0.81-1.284,1.273-1.892
		c0.297-0.39,0.616-0.76,0.909-1.149c0.295-0.391,0.539-0.826,0.821-1.232c0.42-0.607,0.892-1.157,1.449-1.653
		c0.678-0.604,1.47-0.945,2.317-1.159c0.453-0.115,0.945-0.132,1.421-0.08c0.474,0.052,0.952,0.537,1.029,1.109
		c0.027,0.201,0.193,0.34,0.155,0.564C77.908,78.413,77.975,78.615,78.001,78.833z M108.999,78.909
		c-0.019,0.027-0.038,0.054-0.056,0.081c0.034,0.004,0.068,0.008,0.102,0.012c0.021,0.066,0.041,0.127,0.01,0.202
		c-0.178,0.436-0.374,0.864-0.497,1.323c-0.155,0.581-0.35,1.153-0.372,1.828c0.246-0.255,0.471-0.468,0.672-0.703
		c0.429-0.501,0.867-0.994,1.303-1.488c0.409-0.464,0.798-0.947,1.137-1.453c0.458-0.684,0.88-1.397,1.356-2.068
		c0.369-0.52,0.668-1.085,0.961-1.634c0.394-0.736,0.761-1.501,1.045-2.299c0.297-0.835,0.492-1.673,0.438-2.562
		c-0.005-0.09,0.014-0.208-0.084-0.233c-0.105-0.026-0.207,0.041-0.272,0.137c-0.065,0.097-0.106,0.222-0.193,0.29
		c-0.587,0.462-1.035,1.06-1.465,1.647c-0.463,0.632-0.975,1.237-1.344,1.94c-0.179,0.34-0.45,0.631-0.637,0.968
		c-0.145,0.261-0.348,0.483-0.471,0.755c-0.186,0.412-0.353,0.831-0.57,1.229c-0.166,0.307-0.385,0.576-0.48,0.934
		C109.478,78.212,109.397,78.654,108.999,78.909z M94.714,84.838c-0.055,0.956,0.771,1.562,1.477,1.469
		c0.523-0.069,0.99-0.333,1.4-0.688c0.537-0.464,0.985-1.009,1.435-1.551c0.41-0.494,0.807-1.001,1.112-1.574
		c0.218-0.41,0.471-0.8,0.69-1.212c0.213-0.402,0.362-0.823,0.536-1.236c0.176-0.418,0.202-0.885,0.405-1.297
		c0.035-0.072,0.013-0.127-0.036-0.188c-0.386-0.485-1.178-0.732-1.779-0.516c-0.55,0.197-1.048,0.503-1.532,0.827
		c-0.308,0.207-0.64,0.4-0.891,0.665c-0.379,0.401-0.798,0.768-1.102,1.246c-0.208,0.326-0.47,0.617-0.639,0.974
		c-0.137,0.29-0.34,0.551-0.466,0.845c-0.155,0.362-0.266,0.744-0.384,1.12C94.825,84.086,94.694,84.447,94.714,84.838z
		 M110.154,73.221c-0.017-0.007-0.034-0.021-0.048-0.019c-0.015,0.003-0.038,0.025-0.037,0.033c0.007,0.031,0.031,0.042,0.06,0.024
		C110.141,73.251,110.146,73.234,110.154,73.221z"/>
	<path style="fill:#29ABE2;" d="M4.031,71.594c0.209-0.279,0.5-0.496,0.637-0.827c0.066-0.162,0.224-0.013,0.31-0.114
		c0.356-0.415,0.829-0.727,1.108-1.202c0.099-0.168,0.239-0.309,0.311-0.489c0.057-0.144,0.124-0.238,0.297-0.208
		c0.2,0.034,0.214-0.19,0.274-0.273c0.375-0.521,0.827-0.961,1.363-1.293c0.19-0.118,0.343-0.232,0.451-0.414
		c0.114-0.19,0.353-0.07,0.497-0.225c0.126-0.136,0.408-0.123,0.382-0.409c-0.001-0.006,0.014-0.021,0.02-0.02
		c0.369,0.032,0.398-0.393,0.692-0.508c0.298-0.116,0.559-0.349,0.853-0.507c0.153-0.083,0.291-0.166,0.471-0.21
		c0.114-0.027,0.254-0.186,0.383-0.251c0.675-0.343,1.349-0.698,2.054-0.967c0.95-0.363,1.933-0.638,2.932-0.842
		c0.403-0.082,0.823-0.077,1.231-0.138c0.843-0.126,1.668-0.026,2.482,0.185c0.601,0.156,1.182,0.376,1.738,0.656
		c0.167,0.084,0.331,0.196,0.171,0.421c-0.09,0.126,0.107,0.154,0.075,0.268c-0.243,0.066-0.49,0.153-0.744,0.195
		c-0.2,0.033-0.424,0.078-0.609-0.043c-0.282-0.184-0.609-0.262-0.9-0.42c-0.251-0.136-0.536-0.161-0.797-0.167
		c-0.887-0.021-1.77-0.037-2.653,0.187c-0.539,0.137-1.06,0.325-1.578,0.503c-0.391,0.135-0.777,0.351-1.155,0.556
		c-0.327,0.177-0.694,0.293-1.029,0.472c-0.24,0.128-0.475,0.245-0.673,0.445c-0.098,0.099-0.282,0.092-0.415,0.193
		c-0.235,0.178-0.484,0.333-0.69,0.554c-0.079,0.084-0.175,0.265-0.363,0.159c-0.235,0.4-0.792,0.458-0.972,0.916
		c-0.01,0.026-0.02,0.061-0.041,0.072c-0.651,0.337-1.017,1-1.613,1.407c-0.299,0.205-0.458,0.565-0.731,0.819
		c-0.272,0.252-0.477,0.575-0.724,0.855c-0.106,0.12-0.212,0.234-0.265,0.386c-0.055,0.161-0.173,0.234-0.339,0.238
		c0.014,0.118,0.223,0.037,0.173,0.196C6.427,71.65,6.661,72.153,6.33,71.98c-0.1-0.053-0.269,0.195-0.364,0.333
		c-0.022,0.033-0.229,0.171-0.022,0.293c0.116,0.068-0.012,0.18-0.049,0.217c-0.217,0.217-0.41,0.444-0.514,0.74
		c-0.017,0.048-0.109,0.069-0.166,0.103c-0.017-0.05,0.023-0.117-0.04-0.15c-0.011-0.005-0.05,0.029-0.064,0.051
		c-0.046,0.071,0.017,0.102,0.058,0.14c0.041,0.07,0.089,0.19-0.014,0.191c-0.323,0.005-0.121,0.434-0.395,0.458
		c0.096,0.204-0.105,0.324-0.139,0.49c-0.035,0.171-0.127,0.31-0.225,0.445c-0.177,0.244-0.348,0.484-0.294,0.815
		c0.009,0.052-0.051,0.131-0.1,0.173c-0.14,0.117-0.338,0.184-0.185,0.443c0.044,0.075-0.12,0.162-0.197,0.236
		c-0.082,0.078-0.232,0.129-0.1,0.284c0.011,0.013,0,0.063-0.017,0.078c-0.357,0.339-0.297,0.797-0.317,1.216
		c-0.011,0.237-0.21,0.198-0.305,0.317c0.096,0.094,0.311,0.179,0.044,0.319c-0.045,0.023-0.014,0.049,0.02,0.081
		c0.092,0.088,0.083,0.223,0.01,0.291c-0.19,0.177-0.077,0.373-0.07,0.561c0.011,0.321-0.081,0.631-0.081,0.954
		c0,0.39,0.002,0.777,0.076,1.158c0.088,0.459,0.168,0.924,0.313,1.367c0.218,0.664,0.547,1.276,0.97,1.841
		c0.56,0.747,1.241,1.365,2.015,1.868c0.385,0.25,0.786,0.489,1.233,0.659c0.573,0.217,1.146,0.445,1.727,0.629
		c0.609,0.193,1.243,0.329,1.89,0.382c0.518,0.043,1.033,0.126,1.548,0.205c0.088,0.014,0.175,0.029,0.263,0.029
		c0.938-0.002,1.883,0.063,2.812-0.073c0.674-0.099,1.352-0.191,2.021-0.341c0.747-0.168,1.48-0.381,2.219-0.575
		c0.536-0.14,1.071-0.282,1.595-0.458c0.251-0.084,0.505-0.182,0.748-0.315c0.171-0.094,0.407-0.159,0.622-0.214
		c0.335-0.086,0.632-0.25,0.941-0.402c0.432-0.212,0.862-0.438,1.313-0.61c0.277-0.106,0.501-0.315,0.783-0.391
		c0.47-0.128,0.797-0.488,1.201-0.721c0.5-0.288,0.958-0.668,1.41-1.043c0.533-0.441,1.037-0.916,1.518-1.407
		c0.289-0.295,0.647-0.551,0.857-0.899c0.35-0.58,0.767-1.117,1.063-1.734c0.219-0.458,0.472-0.902,0.695-1.36
		c0.359-0.737,0.579-1.522,0.741-2.318c0.084-0.41,0.057-0.843,0.129-1.261c0.017-0.096-0.021-0.149-0.129-0.145
		c-0.605,0.026-1.212,0.025-1.813,0.082c-0.397,0.038-0.79,0.063-1.181-0.005c-0.103-0.018-0.168,0.039-0.251,0.039
		c-0.809-0.004-1.618-0.004-2.427-0.022c-0.191-0.004-0.379,0.076-0.57,0.011c-0.007-0.075,0.091-0.019,0.104-0.106
		c-0.255,0.014-0.5,0.077-0.758,0.014c-0.622-0.151-1.268-0.076-1.907-0.216c-0.532-0.117-1.101-0.294-1.675-0.162
		c-0.05,0.012-0.098-0.001-0.136-0.042c-0.256-0.27-0.601-0.243-0.921-0.241c-0.165,0.001-0.261-0.097-0.392-0.136
		c-0.437-0.129-0.906-0.193-1.296-0.429c-0.262-0.158-0.547-0.271-0.816-0.386c-0.348-0.148-0.507-0.442-0.745-0.671
		c-0.204-0.196-0.365-0.433-0.658-0.518c-0.049-0.014-0.08-0.106-0.112-0.166c-0.185-0.352-0.211-0.762-0.388-1.113
		c-0.094-0.187-0.093-0.397-0.188-0.585c-0.026-0.052-0.036-0.316,0.013-0.379c0.137-0.177-0.032-0.233-0.068-0.34
		c-0.025-0.074-0.28-0.14-0.02-0.245c0.004-0.002-0.061-0.15-0.075-0.234c-0.011-0.068-0.059-0.151,0.052-0.201
		c0.16-0.073,0.172-0.099,0.06-0.205c-0.114-0.108-0.039-0.197-0.007-0.294c0.091-0.276,0.108-0.625,0.291-0.81
		c0.368-0.374,0.566-0.917,1.132-1.119c0.135-0.048,0.403-0.125,0.459-0.367c0.006-0.024,0.063-0.044,0.1-0.052
		c0.67-0.139,1.244-0.538,1.908-0.696c0.199-0.047,0.404-0.076,0.598-0.129c0.481-0.133,0.975-0.198,1.454-0.312
		c0.602-0.143,1.196-0.159,1.797-0.148c0.326,0.006,0.654-0.032,0.98,0.05c0.73,0.183,1.486,0.219,2.217,0.419
		c0.441,0.121,0.878,0.263,1.285,0.446c0.329,0.148,0.637,0.378,0.964,0.554c0.306,0.165,0.579,0.378,0.891,0.535
		c0.262,0.132,0.47,0.364,0.719,0.528c0.376,0.248,0.577,0.678,0.986,0.901c0.116,0.063,0.188,0.283,0.272,0.435
		c0.145,0.262,0.288,0.515,0.584,0.636c0.128,0.053,0.187,0.19,0.236,0.295c0.175,0.38,0.346,0.746,0.635,1.069
		c0.196,0.22,0.257,0.558,0.388,0.838c0.086,0.185-0.227-0.019-0.155,0.177c0.06,0.163,0.308-0.054,0.222,0.066
		c-0.19,0.267,0.144,0.273,0.163,0.44c0.021,0.19,0.009,0.39,0.066,0.582c0.042,0.144,0.131,0.288-0.009,0.458
		c-0.092,0.111,0.079,0.173,0.155,0.181c0.196,0.022,0.396,0.026,0.595-0.008c0.778-0.131,1.567-0.212,2.332-0.397
		c0.469-0.113,0.957-0.021,1.408-0.207c0.053-0.022,0.08,0.05,0.12,0.062c0.29,0.085,0.573,0.082,0.848-0.068
		c0.064-0.035,0.154-0.027,0.233-0.028c0.39-0.002,0.795-0.071,1.165,0.014c0.671,0.154,1.38,0.1,2.025,0.401
		c0.322,0.151,0.679,0.231,1.018,0.349c0.132,0.046,0.219,0.122,0.319,0.194c0.378,0.271,0.817,0.46,1.153,0.784
		c0.325,0.314,0.648,0.629,0.931,0.99c0.199,0.253,0.421,0.499,0.645,0.738c0.166,0.178,0.267,0.423,0.424,0.593
		c0.144,0.157,0.192,0.347,0.317,0.497c0.22,0.264,0.351,0.564,0.45,0.891c0.072,0.24,0.197,0.46,0.266,0.708
		c0.151,0.544,0.116,1.094,0.001,1.611c-0.101,0.453-0.172,0.941-0.452,1.344c-0.026,0.038-0.023,0.102-0.054,0.131
		c-0.217,0.2-0.445,0.37-0.577,0.666c-0.101,0.227-0.475,0.183-0.634,0.401c-0.215,0.294-0.575,0.402-0.821,0.66
		c-0.153,0.16-0.376,0.192-0.604,0.181c-0.182-0.009-0.403-0.071-0.45,0.24c-0.011,0.07-0.193,0.151-0.33,0.09
		c-0.158-0.07-0.284-0.038-0.375,0.112c-0.055,0.091-0.141,0.099-0.234,0.093c-0.283-0.017-0.54,0.056-0.78,0.206
		c-0.056,0.035-0.129,0.063-0.194,0.061c-0.795-0.014-1.562,0.222-2.349,0.262c-0.383,0.019-0.772,0.061-1.157-0.04
		c-0.214-0.056-0.439,0.008-0.661,0.003c-0.604-0.014-1.194-0.14-1.765-0.281c-0.386-0.095-0.792-0.192-1.173-0.367
		c-0.312-0.143-0.626-0.288-0.936-0.456c-0.098,0.542-0.315,1.018-0.483,1.51c-0.147,0.429-0.448,0.799-0.541,1.232
		c-0.081,0.379-0.25,0.712-0.356,1.069c-0.057,0.19-0.154,0.337-0.231,0.505c-0.092,0.2-0.087,0.423-0.188,0.635
		c-0.165,0.347-0.191,0.758-0.344,1.112c-0.29,0.669-0.398,1.386-0.616,2.071c-0.218,0.685-0.31,1.389-0.452,2.085
		c-0.056,0.275-0.222,0.41-0.501,0.361c-0.038-0.007-0.102-0.026-0.112-0.011c-0.176,0.252-0.475,0.09-0.671,0.197
		c-0.344,0.188-0.692,0.044-1.035,0.084c-0.299,0.035-0.485-0.241-0.496-0.686c-0.007-0.305-0.034-0.612,0.051-0.917
		c0.1-0.361,0.16-0.732,0.125-1.111c-0.014-0.158,0.144-0.253,0.155-0.402c0.017-0.219,0.362-0.362,0.146-0.633
		c0.199-0.192,0.158-0.469,0.25-0.698c0.14-0.349,0.231-0.715,0.36-1.066c0.182-0.499,0.343-1.007,0.584-1.49
		c0.13-0.26,0.179-0.59,0.272-0.884c0.148-0.463,0.369-0.904,0.504-1.371c0.103-0.355,0.303-0.675,0.36-1.04
		c0.026-0.163,0.182-0.208,0.232-0.332c0.211-0.521,0.623-0.947,0.764-1.491c0.157-0.604,0.533-1.095,0.747-1.664
		c0.146-0.388,0.269-0.785,0.425-1.169c0.116-0.286,0.31-0.545,0.397-0.838c0.185-0.62,0.52-1.185,0.628-1.834
		c0.034-0.203,0.179-0.402,0.314-0.571c0.354-0.445,0.589-0.96,0.88-1.44c0.094-0.154,0.093-0.363,0.282-0.441
		c-0.385-0.136-0.767-0.125-1.136-0.045c-0.369,0.08-0.778-0.009-1.11,0.269c0.122,0.107,0.191,0.247,0.158,0.427
		c-0.028,0.154-0.054,0.294,0.041,0.459c0.047,0.082,0.147,0.333-0.116,0.408c-0.062,0.018-0.012,0.075-0.009,0.119
		c0.034,0.426-0.049,0.84-0.103,1.26c-0.051,0.4-0.299,0.688-0.384,1.058c-0.039,0.171-0.124,0.393-0.245,0.573
		c-0.116,0.17-0.188,0.365-0.225,0.59c-0.041,0.249-0.24,0.471-0.372,0.704c-0.024,0.042-0.085,0.085-0.079,0.119
		c0.076,0.435-0.279,0.688-0.435,1.021c-0.127,0.27-0.155,0.582-0.367,0.817c-0.246,0.273-0.479,0.557-0.713,0.839
		c-0.06,0.073-0.194,0.112-0.12,0.258c0.024,0.047-0.04,0.096-0.083,0.109c-0.423,0.121-0.75,0.37-1.014,0.718
		c-0.072,0.095-0.233,0.071-0.308,0.19c-0.018,0.028-0.076,0.021-0.076,0.093c0,0.093,0.22,0.06,0.108,0.173
		c-0.113,0.114-0.186,0.269-0.346,0.342c-0.087,0.04-0.166,0.106-0.235,0.173c-0.298,0.29-0.665,0.475-1.022,0.671
		c-0.424,0.233-0.768,0.59-1.231,0.762c-0.567,0.211-1.087,0.525-1.645,0.759c-0.527,0.222-1.039,0.511-1.589,0.642
		c-0.428,0.101-0.801,0.321-1.217,0.443c-0.366,0.108-0.758,0.269-1.126,0.387c-0.434,0.14-0.872,0.319-1.349,0.371
		c-0.477,0.052-0.931,0.284-1.407,0.374c-0.593,0.112-1.166,0.302-1.764,0.394c-0.374,0.058-0.76,0.057-1.119,0.213
		c-0.333,0.144-0.701,0.088-1.05,0.124c-0.528,0.055-1.045,0.17-1.577,0.21c-0.637,0.047-1.273,0.069-1.909,0.077
		c-0.965,0.013-1.928-0.08-2.88-0.226c-0.377-0.058-0.771-0.031-1.13-0.17c-0.273-0.107-0.578-0.101-0.835-0.254
		c-0.024-0.014-0.051-0.032-0.077-0.033c-0.807-0.045-1.543-0.332-2.263-0.668c-0.536-0.25-1.101-0.46-1.521-0.897
		c-0.09-0.094-0.224-0.15-0.278-0.304c-0.033-0.093-0.226-0.028-0.344-0.117c-0.651-0.492-1.224-1.056-1.695-1.722
		c-0.419-0.592-0.731-1.242-1.013-1.903c-0.259-0.606-0.37-1.252-0.373-1.917c-0.001-0.315-0.051-0.632-0.103-0.945
		c-0.024-0.147,0.022-0.271,0.049-0.404c0.078-0.38,0.173-0.799,0.125-1.145c-0.092-0.665,0.312-1.198,0.329-1.827
		c0.005-0.208,0.199-0.556,0.472-0.722c-0.05-0.031-0.115-0.072-0.156-0.098c0.193-0.241,0.338-0.523,0.355-0.819
		c0.022-0.384,0.175-0.707,0.323-1.04c0.008-0.019,0.046-0.036,0.069-0.035c0.149,0.006,0.349-0.132,0.328-0.311
		c-0.058-0.516,0.356-0.805,0.517-1.21c0.141-0.354,0.502-0.456,0.695-0.735c0.167-0.241,0.448-0.429,0.365-0.787
		c-0.009-0.04,0.01-0.072,0.062-0.08c0.229-0.036,0.569-0.376,0.617-0.595c0.021-0.098-0.042-0.057-0.078-0.065
		C4.061,71.623,4.046,71.609,4.031,71.594z M19.45,69.744c0.114,0.186,0,0.458,0.244,0.582c0.013,0.007,0.015,0.056,0.006,0.079
		c-0.068,0.191-0.071,0.193,0.079,0.271c0.082,0.043,0.163,0.093,0.174,0.187c0.06,0.493,0.437,0.792,0.746,1.092
		c0.454,0.441,1.068,0.672,1.646,0.912c0.405,0.168,0.82,0.354,1.269,0.419c0.366,0.053,0.728,0.192,1.092,0.192
		c0.479,0,0.947,0.083,1.411,0.15c0.722,0.105,1.447,0.171,2.171,0.212c0.862,0.049,1.73-0.006,2.595,0.017
		c0.776,0.02,1.541-0.101,2.313-0.131c0.212-0.008,0.368-0.088,0.277-0.385c-0.052-0.168-0.075-0.366-0.113-0.542
		c-0.156-0.721-0.402-1.416-0.734-2.079c-0.554-1.107-1.34-2.043-2.274-2.828c-0.587-0.493-1.286-0.863-2-1.167
		c-0.939-0.399-1.933-0.626-2.942-0.714c-1.165-0.102-2.325,0.009-3.455,0.346c-0.585,0.174-1.118,0.445-1.612,0.798
		c-0.071,0.05-0.193,0.186-0.164,0.195c0.266,0.08,0.014,0.141-0.002,0.199c-0.057,0.212-0.273,0.077-0.386,0.155
		c-0.02,0.13,0.173,0.17,0.039,0.366c-0.149,0.217-0.205,0.528-0.25,0.819c-0.023,0.15,0.017,0.436-0.297,0.42
		c-0.011-0.001-0.04,0.05-0.033,0.067c0.068,0.179-0.08,0.384,0.082,0.546C19.365,69.87,19.406,69.808,19.45,69.744z M39.632,76.047
		c0.293,0.066,0.155,0.189,0.104,0.285c-0.151,0.283-0.305,0.565-0.465,0.843c-0.072,0.125-0.164,0.346-0.241,0.343
		c-0.266-0.009-0.249,0.172-0.237,0.308c0.012,0.137-0.052,0.227-0.082,0.34c-0.092,0.34-0.468,0.458-0.522,0.879
		c-0.067,0.525-0.436,0.996-0.586,1.529c-0.06,0.215-0.135,0.443-0.268,0.615c-0.317,0.413-0.404,0.914-0.583,1.38
		c-0.054,0.14-0.007,0.267,0.179,0.337c0.622,0.235,1.291,0.232,1.928,0.447c0.813,0.274,1.681,0.34,2.565,0.227
		c0.643-0.082,1.282-0.162,1.886-0.384c1.066-0.392,2.096-0.858,2.879-1.73c0.251-0.279,0.467-0.577,0.609-0.924
		c0.165-0.406,0.272-0.836,0.175-1.266c-0.153-0.677-0.402-1.317-0.737-1.938c-0.345-0.64-0.787-1.204-1.26-1.728
		c-0.485-0.537-1.062-1.016-1.753-1.291c-0.315-0.126-0.661-0.273-1.005-0.198c-0.592,0.128-1.179,0.3-1.64,0.73
		c-0.253,0.236-0.435,0.54-0.569,0.846C39.931,75.873,39.936,76.049,39.632,76.047z M5.798,72.658
		c-0.014-0.007-0.029-0.02-0.04-0.017c-0.017,0.004-0.031,0.019-0.046,0.029c0.022,0.011,0.044,0.022,0.065,0.033
		C5.784,72.688,5.791,72.673,5.798,72.658z"/>
	<path style="fill:#29ABE2;" d="M69.442,69.343c0.44,0.043,0.825,0.002,1.153,0.244c0.343,0.253,0.601,0.572,0.802,0.947
		c0.169,0.316,0.087,0.615-0.004,0.924c-0.058,0.196-0.245,0.284-0.377,0.373c-0.223,0.152-0.473,0.31-0.78,0.283
		c-0.468-0.042-0.922,0.107-1.39,0.126c-0.453,0.018-0.808-0.138-1.089-0.412c-0.176-0.171-0.219-0.49-0.183-0.77
		c0.006-0.044,0.065-0.103,0.016-0.13c-0.286-0.153-0.281-0.399-0.158-0.624c0.114-0.207,0.269-0.391,0.455-0.562
		c0.33-0.304,0.729-0.24,1.099-0.319C69.156,69.388,69.327,69.29,69.442,69.343z"/>
	<path style="fill:#29ABE2;" d="M4.077,71.638c-0.022,0.05-0.055,0.067-0.105,0.036c0.02-0.027,0.039-0.053,0.059-0.08
		C4.046,71.609,4.061,71.623,4.077,71.638z"/>
	<path style="fill:#29ABE2;" d="M109.039,79.008c0-0.019,0.003-0.038,0.008-0.057c0.032-0.012,0.065-0.023,0.097-0.035
		c0,0.024,0.01,0.057-0.002,0.071C109.117,79.016,109.086,79.067,109.039,79.008z"/>
</g>
<g>
	<path style="fill:#2BACE2;" d="M186.916,18.924c-0.646,1.328-1.702,0.117-2.043-0.407c-3.905-6.009-3.774-15.073-1.013-14.334
		C188.341,5.382,187.775,17.159,186.916,18.924 M183.112,16.672c0.367,0.798,0.781,1.573,1.244,2.31
		c0.123,0.196,0.324,0.464,0.568,0.703c0.396,1.412-0.975,1.223-1.523,1.233c-6.717,0.128-13.117-6.854-9.535-9.69
		C176.367,9.248,180.669,13.432,183.112,16.672 M185.569,20.497c0.004-0.108-0.003-0.227-0.027-0.362
		c0.099,0.047,0.201,0.086,0.304,0.104C185.743,20.329,185.652,20.414,185.569,20.497 M195.6,10.847
		c-3.784,0.478-6.44,5.92-6.798,6.691c-0.419-0.06-0.879,0.251-1.086,0.764c-0.119,0.296-0.132,0.6-0.056,0.854
		c-0.159,0.031-0.361,0.099-0.6,0.221c1.208-2.52,2.433-17.956-3.401-19.334c-3.05-0.721-3.94,7.706-1.21,15.033
		c-2.989-3.728-7.47-7.744-10.173-5.549c-4.27,3.466,3.377,12.022,11.393,11.877c0.322-0.006,0.883,0.047,1.314-0.103
		c-0.135,0.278-0.147,0.308-0.62,0.576c-0.533,0.302-1.932,0.87-2.754,0.913c-0.822,0.043,1.644,0.958,4.197-0.659
		c1.769-1.122,2.422-1.867,2.501-2.394c0.412,0.043,0.857-0.264,1.06-0.767c0.139-0.344,0.131-0.699,0.01-0.971
		c1.609-1.206,4.635-3.021,7.115-1.879c2.552,0.961,1.852,3.014,1.643,3.312c-0.184,0.263-0.985,1.067-1.987,0.631
		c-0.862-0.374-0.852-1.23-0.481-1.569c0.052,0.095,0.121,0.181,0.224,0.236c0.281,0.152,0.632,0.046,0.783-0.235
		c0.151-0.282,0.045-0.632-0.236-0.783c-0.281-0.151-0.632-0.046-0.783,0.235c-0.052,0.097-0.063,0.201-0.058,0.303
		c-0.644,0.232-0.832,1.514,0.361,2.032c1.212,0.527,2.199-0.434,2.404-0.764c0.186-0.299,0.985-2.603-1.817-3.643
		c-2.628-1.173-5.717,0.669-7.333,1.877c-0.039-0.04-0.081-0.076-0.129-0.106c0.418-0.885,3.036-6.11,6.805-6.539
		c3.074-0.35,3.143,1.868,3.118,2.231c-0.021,0.32-0.289,1.423-1.371,1.57c-0.931,0.127-1.366-0.609-1.225-1.091
		c0.093,0.054,0.198,0.091,0.314,0.085c0.319-0.016,0.564-0.288,0.547-0.607s-0.289-0.564-0.608-0.547
		c-0.319,0.016-0.564,0.288-0.547,0.607c0.006,0.11,0.05,0.205,0.107,0.289c-0.43,0.533,0.074,1.726,1.363,1.55
		c1.31-0.179,1.655-1.512,1.659-1.9C199.249,12.942,199.312,10.378,195.6,10.847"/>
	<path style="fill:#1D4A6A;" d="M235.037,80.97h-1.117v7.032h1.117V80.97z M233.231,87.909l-1.989-2.741
		c0.337-0.255,0.608-0.518,0.812-0.789c0.204-0.271,0.362-0.564,0.475-0.88c0.113-0.315,0.187-0.659,0.223-1.031
		c0.035-0.371,0.053-0.792,0.053-1.263V80.97h-1.197v0.276c0,0.358-0.004,0.694-0.013,1.007c-0.009,0.314-0.037,0.607-0.083,0.88
		c-0.047,0.273-0.127,0.527-0.24,0.763c-0.113,0.235-0.269,0.448-0.469,0.641l-2.693-3.567h-1.337v0.088l1.716,2.297
		c-0.337,0.273-0.608,0.575-0.812,0.907c-0.204,0.331-0.362,0.682-0.475,1.054c-0.113,0.372-0.188,0.759-0.223,1.162
		c-0.036,0.403-0.053,0.815-0.053,1.236v0.289h1.157v-0.262c0-0.367,0.009-0.739,0.027-1.115c0.017-0.376,0.055-0.729,0.113-1.058
		c0.057-0.329,0.148-0.631,0.272-0.907c0.124-0.275,0.295-0.496,0.513-0.661l2.913,4.003h1.31V87.909z M226.118,80.97h-1.117v4.037
		h1.117V80.97z M223.788,82.599c-0.153-0.477-0.362-0.85-0.628-1.118c-0.182-0.184-0.399-0.315-0.652-0.393
		c-0.253-0.078-0.534-0.118-0.845-0.118h-2.587v1.115h2.561c0.146,0,0.278,0.013,0.396,0.037c0.117,0.025,0.216,0.078,0.296,0.158
		c0.137,0.13,0.262,0.362,0.375,0.695c0.113,0.334,0.17,0.837,0.17,1.508c0,0.376-0.016,0.692-0.047,0.947
		c-0.031,0.256-0.071,0.466-0.119,0.632c-0.049,0.165-0.108,0.296-0.177,0.393c-0.068,0.096-0.14,0.175-0.216,0.238
		c-0.151,0.13-0.377,0.195-0.678,0.195h-2.561v1.115h2.534c0.302,0,0.574-0.037,0.818-0.111c0.244-0.074,0.457-0.198,0.639-0.373
		c0.284-0.255,0.513-0.626,0.688-1.111c0.175-0.486,0.263-1.128,0.263-1.925C224.018,83.704,223.941,83.076,223.788,82.599
		 M218.324,80.97h-1.117v7.032h1.117V80.97z M215.963,83.516c0-0.595-0.043-1.047-0.129-1.353c-0.087-0.307-0.216-0.552-0.389-0.736
		c-0.129-0.148-0.284-0.261-0.466-0.339c-0.182-0.078-0.412-0.118-0.692-0.118h-3.884v5.3c0,0.21-0.071,0.379-0.213,0.507
		c-0.141,0.128-0.334,0.191-0.578,0.191c-0.155,0-0.276-0.011-0.363-0.033c-0.086-0.023-0.169-0.047-0.249-0.074v1.102
		c0.129,0.044,0.243,0.071,0.342,0.08c0.1,0.009,0.212,0.014,0.336,0.014c0.563,0,1.011-0.158,1.344-0.474
		c0.332-0.316,0.499-0.776,0.499-1.38v-4.118h2.833c0.071,0,0.144,0.025,0.219,0.074c0.071,0.063,0.134,0.186,0.19,0.37
		c0.055,0.183,0.083,0.481,0.083,0.893v4.581h1.117V83.516z M205.667,83.516c0-0.595-0.043-1.047-0.13-1.353
		c-0.086-0.307-0.214-0.552-0.382-0.736c-0.129-0.148-0.284-0.261-0.466-0.339c-0.181-0.078-0.414-0.118-0.698-0.118h-4.097v7.033
		h1.117v-5.918h3.053c0.089,0,0.171,0.025,0.246,0.074c0.071,0.063,0.129,0.186,0.173,0.37c0.044,0.183,0.067,0.481,0.067,0.893
		v4.581h1.117V83.516z M198.647,80.97h-1.117v4.037h1.117V80.97z M196.319,80.97h-1.117v4.037h1.117V80.97z M189.232,86.955v-4.897
		h3.159c0.094,0,0.176,0.025,0.247,0.074c0.07,0.063,0.129,0.191,0.176,0.383c0.046,0.193,0.07,0.495,0.07,0.907v3.533H189.232z
		 M194.001,83.516c0-0.595-0.043-1.047-0.13-1.353c-0.086-0.307-0.216-0.552-0.389-0.736c-0.128-0.148-0.284-0.261-0.465-0.339
		c-0.182-0.078-0.413-0.118-0.692-0.118h-4.21v7.033h5.886V83.516z"/>
	<path style="fill:#1D4A6A;" d="M230.607,73.105h-1.117v4.07h1.117V73.105z M235.036,72.689c0-0.595-0.043-1.047-0.129-1.353
		c-0.087-0.307-0.217-0.552-0.39-0.736c-0.128-0.148-0.283-0.261-0.465-0.339c-0.182-0.078-0.412-0.118-0.692-0.118h-3.871v1.115
		h3.938c0.088,0,0.17,0.025,0.246,0.074c0.071,0.063,0.129,0.186,0.176,0.37c0.047,0.183,0.07,0.481,0.07,0.893v4.581h1.117V72.689z
		 M228.294,72.582c0-0.439-0.052-0.811-0.156-1.115c-0.104-0.305-0.256-0.562-0.456-0.773c-0.208-0.228-0.455-0.386-0.741-0.473
		c-0.286-0.088-0.602-0.131-0.948-0.131h-0.133c-0.621,0-1.131,0.201-1.53,0.604c-0.128,0.13-0.252,0.307-0.369,0.531
		c-0.117,0.224-0.212,0.443-0.283,0.658l-0.126,0.356l-0.911-2.096h-1.184l1.39,3.332l-1.144,3.701h1.171l1.43-4.594
		c0.146-0.48,0.328-0.829,0.545-1.048c0.129-0.126,0.274-0.216,0.436-0.272c0.161-0.056,0.346-0.084,0.555-0.084h0.1
		c0.372,0,0.671,0.114,0.898,0.342c0.226,0.229,0.339,0.609,0.339,1.142v3.412h-2.248v1.102h3.365V72.582z M220.906,72.689
		c0-0.595-0.043-1.047-0.13-1.353c-0.086-0.307-0.216-0.552-0.389-0.736c-0.128-0.148-0.283-0.261-0.465-0.339
		c-0.182-0.078-0.413-0.118-0.692-0.118h-3.053v1.115h3.093c0.035,0,0.074,0.015,0.116,0.044c0.042,0.029,0.086,0.057,0.13,0.084
		c0.071,0.063,0.134,0.181,0.19,0.356c0.055,0.175,0.083,0.468,0.083,0.88v4.554h1.117V72.689z M215.644,71.772
		c-0.153-0.477-0.362-0.85-0.628-1.118c-0.182-0.184-0.399-0.315-0.652-0.393c-0.253-0.078-0.534-0.118-0.845-0.118h-2.587v1.115
		h2.561c0.146,0,0.278,0.013,0.395,0.037c0.118,0.025,0.217,0.078,0.296,0.158c0.138,0.13,0.263,0.362,0.376,0.695
		c0.113,0.334,0.17,0.837,0.17,1.508c0,0.376-0.016,0.692-0.047,0.947c-0.031,0.256-0.071,0.466-0.119,0.632
		c-0.049,0.165-0.108,0.296-0.177,0.393c-0.069,0.096-0.141,0.175-0.216,0.238c-0.151,0.13-0.377,0.195-0.678,0.195h-2.561v1.115
		h2.534c0.302,0,0.574-0.037,0.818-0.111c0.244-0.074,0.457-0.198,0.639-0.373c0.283-0.255,0.513-0.626,0.688-1.111
		c0.175-0.486,0.263-1.128,0.263-1.925C215.874,72.877,215.797,72.249,215.644,71.772 M210.381,70.143h-3.538v1.115h2.042
		c-0.165,0.041-0.299,0.111-0.403,0.212c-0.104,0.101-0.185,0.215-0.243,0.342c-0.057,0.128-0.098,0.26-0.123,0.397
		c-0.024,0.136-0.036,0.261-0.036,0.373v4.594h1.117v-4.883c0-0.139,0.012-0.27,0.037-0.393c0.024-0.123,0.067-0.233,0.129-0.329
		c0.062-0.097,0.148-0.173,0.256-0.229c0.109-0.056,0.254-0.084,0.436-0.084h0.326V70.143z M203.47,70.143h-3.964v-2.525h-1.117
		v3.439c0,0.134,0.068,0.201,0.206,0.201h3.678l-0.612,3.426c-0.093,0.506-0.278,0.862-0.555,1.068
		c-0.278,0.206-0.62,0.309-1.028,0.309h-0.299v1.115h0.379c0.31,0,0.606-0.039,0.888-0.118c0.281-0.078,0.537-0.209,0.768-0.393
		c0.23-0.183,0.432-0.433,0.605-0.749c0.173-0.315,0.306-0.713,0.399-1.192l0.798-4.346
		C203.647,70.222,203.598,70.143,203.47,70.143 M197.861,72.689c0-0.595-0.043-1.047-0.129-1.353
		c-0.087-0.307-0.217-0.552-0.39-0.736c-0.128-0.148-0.283-0.261-0.465-0.339c-0.182-0.078-0.412-0.118-0.692-0.118h-3.053v1.115
		h3.093c0.036,0,0.074,0.015,0.116,0.044c0.043,0.029,0.086,0.057,0.13,0.084c0.071,0.063,0.134,0.181,0.19,0.356
		c0.055,0.175,0.083,0.468,0.083,0.88v4.554h1.117V72.689z M192.667,72.511c-0.036-0.32-0.09-0.599-0.163-0.836
		c-0.074-0.238-0.16-0.441-0.26-0.611c-0.099-0.171-0.218-0.325-0.356-0.464c-0.177-0.175-0.391-0.294-0.641-0.359
		c-0.251-0.065-0.531-0.098-0.842-0.098h-3.418v2.687c0,0.22,0.011,0.412,0.033,0.578c0.022,0.165,0.07,0.301,0.143,0.406
		c0.073,0.105,0.178,0.185,0.316,0.239c0.137,0.053,0.315,0.08,0.532,0.08h1.363v-1.041h-0.957c-0.107,0-0.189-0.034-0.246-0.101
		c-0.045-0.062-0.067-0.203-0.067-0.423v-1.31h2.328c0.155,0,0.285,0.013,0.389,0.037c0.104,0.025,0.198,0.078,0.283,0.158
		c0.062,0.063,0.123,0.147,0.183,0.252c0.059,0.105,0.109,0.245,0.149,0.42c0.04,0.174,0.071,0.386,0.093,0.635
		c0.022,0.248,0.034,0.547,0.034,0.896c0,0.367-0.009,0.676-0.027,0.927c-0.018,0.251-0.042,0.461-0.073,0.631
		c-0.031,0.171-0.075,0.306-0.13,0.407c-0.055,0.101-0.119,0.182-0.189,0.245c-0.156,0.13-0.384,0.195-0.686,0.195h-3.524v1.115
		h3.558c0.297,0,0.545-0.035,0.745-0.104c0.199-0.07,0.39-0.196,0.572-0.38c0.301-0.291,0.528-0.67,0.681-1.138
		c0.153-0.468,0.23-1.101,0.23-1.898C192.72,73.213,192.702,72.831,192.667,72.511 M185.789,70.143h-1.117v7.032h1.117V70.143z
		 M183.983,77.082l-1.989-2.741c0.337-0.255,0.608-0.518,0.812-0.789c0.204-0.271,0.362-0.564,0.475-0.88
		c0.113-0.315,0.188-0.659,0.223-1.031c0.036-0.371,0.053-0.792,0.053-1.263v-0.235h-1.197v0.276c0,0.358-0.004,0.694-0.013,1.007
		c-0.009,0.314-0.037,0.607-0.083,0.88c-0.047,0.273-0.127,0.527-0.24,0.763c-0.113,0.235-0.269,0.448-0.469,0.641l-2.693-3.567
		h-1.337v0.088l1.716,2.297c-0.337,0.273-0.608,0.575-0.812,0.907c-0.204,0.331-0.362,0.682-0.475,1.054
		c-0.113,0.372-0.187,0.759-0.223,1.162c-0.035,0.403-0.053,0.815-0.053,1.236v0.289h1.157v-0.262c0-0.367,0.009-0.739,0.027-1.115
		c0.017-0.376,0.055-0.729,0.113-1.058c0.057-0.329,0.148-0.631,0.273-0.907c0.124-0.275,0.294-0.496,0.512-0.661l2.913,4.003h1.31
		V77.082z M172.378,73.105h-1.117v4.07h1.117V73.105z M176.807,72.689c0-0.595-0.043-1.047-0.129-1.353
		c-0.087-0.307-0.217-0.552-0.389-0.736c-0.129-0.148-0.284-0.261-0.466-0.339c-0.182-0.078-0.412-0.118-0.692-0.118h-3.871v1.115
		h3.938c0.088,0,0.17,0.025,0.246,0.074c0.071,0.063,0.13,0.186,0.176,0.37c0.047,0.183,0.07,0.481,0.07,0.893v4.581h1.117V72.689z
		 M167.648,77.082l-1.988-2.741c0.337-0.255,0.607-0.518,0.811-0.789c0.204-0.271,0.362-0.564,0.476-0.88
		c0.113-0.315,0.187-0.659,0.222-1.031c0.036-0.371,0.054-0.792,0.054-1.263v-0.235h-1.198v0.276c0,0.358-0.004,0.694-0.013,1.007
		c-0.009,0.314-0.036,0.607-0.083,0.88c-0.047,0.273-0.126,0.527-0.239,0.763c-0.114,0.235-0.27,0.448-0.469,0.641l-2.694-3.567
		h-1.337v0.088l1.716,2.297c-0.337,0.273-0.607,0.575-0.811,0.907c-0.204,0.331-0.363,0.682-0.476,1.054
		c-0.113,0.372-0.187,0.759-0.223,1.162c-0.035,0.403-0.053,0.815-0.053,1.236v0.289h1.157v-0.262c0-0.367,0.009-0.739,0.027-1.115
		s0.055-0.729,0.113-1.058c0.058-0.329,0.149-0.631,0.273-0.907c0.124-0.275,0.295-0.496,0.512-0.661l2.913,4.003h1.31V77.082z
		 M158.859,74.986c-0.044,0.367-0.177,0.662-0.399,0.883c-0.221,0.222-0.592,0.333-1.11,0.333h-0.366
		c-0.501,0-0.843-0.094-1.024-0.282c-0.182-0.188-0.286-0.439-0.313-0.753l-0.379-3.936h4.03L158.859,74.986z M160.456,70.143
		h-6.352c-0.044,0-0.075,0.019-0.093,0.057c-0.018,0.039-0.027,0.071-0.027,0.098l0.519,4.829c0.044,0.439,0.13,0.798,0.256,1.078
		c0.126,0.28,0.297,0.501,0.512,0.662c0.215,0.161,0.47,0.271,0.765,0.329s0.637,0.087,1.028,0.087h0.286
		c0.354,0,0.684-0.052,0.987-0.158c0.304-0.105,0.571-0.26,0.802-0.466c0.23-0.206,0.423-0.465,0.578-0.776
		c0.156-0.311,0.26-0.677,0.313-1.098l0.545-4.487C160.593,70.195,160.553,70.143,160.456,70.143 M153.162,72.689
		c0-0.595-0.043-1.047-0.13-1.353c-0.086-0.307-0.216-0.552-0.389-0.736c-0.129-0.148-0.284-0.261-0.465-0.339
		c-0.182-0.078-0.413-0.118-0.692-0.118h-3.884v5.3c0,0.21-0.071,0.379-0.213,0.507s-0.335,0.191-0.579,0.191
		c-0.155,0-0.276-0.011-0.362-0.033c-0.087-0.023-0.17-0.047-0.25-0.074v1.102c0.129,0.044,0.243,0.071,0.343,0.08
		c0.1,0.009,0.212,0.014,0.336,0.014c0.563,0,1.011-0.158,1.343-0.474c0.333-0.316,0.499-0.776,0.499-1.38v-4.118h2.833
		c0.071,0,0.144,0.025,0.22,0.074c0.071,0.063,0.134,0.186,0.189,0.37c0.056,0.183,0.084,0.481,0.084,0.893v4.581h1.117V72.689z
		 M146.095,70.422c0-0.083-0.018-0.147-0.053-0.191c-0.04-0.058-0.113-0.088-0.22-0.088h-3.245v1.115h2.248l-0.433,3.661
		c-0.053,0.488-0.218,0.818-0.495,0.991c-0.277,0.172-0.635,0.258-1.074,0.258h-0.246c-0.408,0-0.712-0.077-0.911-0.231
		c-0.2-0.155-0.317-0.438-0.353-0.85l-0.492-4.944h-1.197l0.519,4.971c0.044,0.439,0.131,0.8,0.262,1.085
		c0.131,0.284,0.304,0.507,0.519,0.668c0.215,0.161,0.466,0.271,0.752,0.329c0.286,0.058,0.606,0.087,0.961,0.087h0.133
		c0.789,0,1.424-0.19,1.905-0.571c0.481-0.38,0.773-0.991,0.875-1.833l0.518-4.171C146.086,70.6,146.095,70.505,146.095,70.422
		 M138.656,70.143h-1.117v4.037h1.117V70.143z M136.336,72.689c0-0.595-0.043-1.047-0.13-1.353
		c-0.086-0.307-0.216-0.552-0.389-0.736c-0.128-0.148-0.284-0.261-0.465-0.339c-0.182-0.078-0.413-0.118-0.692-0.118h-3.884v5.3
		c0,0.21-0.071,0.379-0.213,0.507s-0.335,0.191-0.579,0.191c-0.155,0-0.276-0.011-0.362-0.033c-0.087-0.023-0.17-0.047-0.25-0.074
		v1.102c0.129,0.044,0.243,0.071,0.343,0.08c0.1,0.009,0.212,0.014,0.336,0.014c0.563,0,1.011-0.158,1.343-0.474
		c0.333-0.316,0.499-0.776,0.499-1.38v-4.118h2.833c0.071,0,0.145,0.025,0.22,0.074c0.071,0.063,0.134,0.186,0.189,0.37
		c0.056,0.183,0.084,0.481,0.084,0.893v4.581h1.117V72.689z"/>
</g>
</svg>
