<?xml version="1.0" encoding="iso-8859-1"?>
<!-- Generator: Adobe Illustrator 18.1.1, SVG Export Plug-In . SVG Version: 6.00 Build 0)  -->
<svg version="1.1" id="Layer_1" xmlns="http://www.w3.org/2000/svg" xmlns:xlink="http://www.w3.org/1999/xlink" x="0px" y="0px"
	 viewBox="0 0 40 40" style="enable-background:new 0 0 40 40;" xml:space="preserve">
<path style="fill:#FFFFFF;" d="M20,0C8.954,0,0,8.954,0,20s8.954,20,20,20c11.046,0,20-8.954,20-20S31.046,0,20,0z M25.287,32.161
	c-1.702-0.129-12.796-2.793-17.468-15.99c-0.946-2.767,0.223-7.23,3.389-8.226c3.212-1.038,4.855,3.449,5.323,6.287l-2.802,2.799
	c0,0-0.079,1.749,3.755,5.583c3.83,3.832,5.582,3.753,5.582,3.753l3.255-3.253c2.057,0.434,6.18,3.054,6.18,3.054
	C31.988,30.037,29.365,32.592,25.287,32.161z"/>
</svg>
