<?xml version="1.0" encoding="iso-8859-1"?>
<!-- Generator: Adobe Illustrator 18.1.1, SVG Export Plug-In . SVG Version: 6.00 Build 0)  -->
<svg version="1.1" id="Layer_1" xmlns="http://www.w3.org/2000/svg" xmlns:xlink="http://www.w3.org/1999/xlink" x="0px" y="0px"
	 viewBox="0 0 79.434 55.763" style="enable-background:new 0 0 79.434 55.763;" xml:space="preserve">
<path style="fill:#E64C3C;" d="M79.434,30.9c0,6.434-0.794,12.868-0.794,12.868s-0.794,5.481-3.177,7.864
	c-3.018,3.177-6.434,3.177-7.943,3.336c-11.121,0.794-27.802,0.794-27.802,0.794s-20.653-0.159-27.008-0.794
	c-1.748-0.318-5.719-0.238-8.738-3.416c-2.383-2.383-3.177-7.864-3.177-7.864S0,37.255,0,30.821v-6.037
	c0-6.355,0.794-12.789,0.794-12.789s0.794-5.481,3.177-7.864c3.018-3.177,6.434-3.177,7.943-3.336C23.036,0,39.717,0,39.717,0l0,0
	c0,0,16.681,0,27.802,0.794c1.589,0.159,4.925,0.238,7.943,3.336c2.383,2.383,3.177,7.864,3.177,7.864s0.794,6.434,0.794,12.868
	V30.9z M31.535,38.208l21.447-11.121l-21.447-11.2V38.208z"/>
</svg>
