
<svg version="1.1" id="Layer_1" xmlns="http://www.w3.org/2000/svg" xmlns:xlink="http://www.w3.org/1999/xlink" x="0px" y="0px"
	 viewBox="0 0 400 100" style="enable-background:new 0 0 400 100;" xml:space="preserve">
<g>
	<rect y="0" style="fill:none;" width="100" height="100"/>
	<rect x="100" y="0" style="fill:none;" width="100" height="100"/>
	<rect x="200" y="0" style="fill:none;" width="100" height="100"/>
	<rect x="300" y="0" style="fill:none;" width="100" height="100"/>
	<path style="fill-rule:evenodd;clip-rule:evenodd;fill:#019FE3;" d="M351.833,45.251c0.345,1.774,0.693,3.547,1.038,5.321
		c0.329,1.701,0.64,3.406,0.985,5.103c0.347,1.699,1.429,2.768,2.997,2.786c3.936,0.045,7.874,0.052,11.809,0.001
		c1.735-0.021,3.048-1.595,3.034-3.432c-0.014-1.836-1.35-3.343-3.091-3.369c-2.784-0.042-5.57-0.031-8.355-0.006
		c-0.57,0.004-0.818-0.126-0.948-0.819c-1.366-7.214-2.772-14.419-4.176-21.624c-0.381-1.963-1.518-3.078-3.116-3.095
		c-1.587-0.015-2.713,1.075-3.156,3.037c-1.825,8.096-3.652,16.191-5.48,24.284c-0.044,0.195-0.118,0.382-0.224,0.717
		c-0.784-2.777-1.529-5.417-2.275-8.06c-0.31-1.097-0.601-2.202-0.93-3.293c-0.518-1.72-1.536-2.636-2.934-2.685
		c-1.446-0.053-2.555,0.8-3.141,2.506c-0.957,2.783-1.894,5.576-2.807,8.378c-0.164,0.504-0.387,0.66-0.862,0.657
		c-3.615-0.023-7.231-0.03-10.846,0c-0.546,0.004-0.79-0.2-1.007-0.736c-1.945-4.804-2.761-9.819-2.062-15.031
		c0.925-6.889,3.991-12.402,9.226-16.337c3.526-2.651,7.435-4.133,11.742-4.132c3.343,0.001,6.421,1.106,9.309,2.899
		c1.654,1.027,3.285,2.1,4.911,3.184c1.141,0.76,2.259,0.756,3.42,0.064c1.977-1.176,3.92-2.435,5.959-3.467
		c6.162-3.116,12.365-2.957,18.439,0.235c3.775,1.985,6.26,5.48,8.051,9.557c2.375,5.406,3.129,11.117,2.378,17.067
		c-1.114,8.812-5.106,15.784-11.239,21.377c-4.619,4.21-9.777,7.536-14.839,11.021c-3.293,2.265-6.539,4.608-9.79,6.946
		c-0.463,0.333-0.776,0.389-1.274,0.037c-7.932-5.583-15.481-11.741-22.764-18.305c-0.553-0.499-1.091-0.803-1.864-0.797
		c-4.82,0.043-9.639,0.02-14.461,0.002c-1.869-0.007-2.993-0.88-3.394-2.57c-0.451-1.902,0.724-3.909,2.513-4.053
		c1.784-0.144,3.584-0.115,5.376-0.12c4.741-0.013,9.481-0.004,14.221-0.004c2.37,0,3.166-0.611,4.013-3.068
		c0.109-0.318,0.233-0.629,0.418-1.122c0.407,1.43,0.77,2.687,1.123,3.946c0.885,3.153,1.758,6.311,2.652,9.461
		c0.525,1.849,1.679,2.84,3.196,2.796c1.465-0.041,2.61-1.187,3.025-3.022c1.663-7.35,3.325-14.7,4.989-22.05
		c0.013-0.056,0.039-0.108,0.058-0.162C351.732,45.266,351.781,45.259,351.833,45.251z"/>
	<path style="fill:#019FE3;" d="M80.985,28.806c-6.531-7.61-15.785-12.054-26.76-12.852c-1.114-0.081-2.246-0.122-3.365-0.122
		c-10.247,0-20.653,3.528-28.55,9.681C14.487,31.607,10,39.441,10,47.005c0,6.194,1.781,10.708,5.294,13.418
		c2.9,2.238,6.129,2.479,7.383,2.479c0.263,0,0.461-0.01,0.58-0.018h8.295c1.101,5.394,6.253,6.912,9.442,6.912l5.183-0.001
		c0.536,2.07,1.864,3.691,3.868,4.672c1.633,0.8,3.309,0.979,4.211,1.013c0.492,1.315,1.911,4.366,5.618,8.687l6.188-5.309
		c-1.127-1.313-1.962-2.442-2.582-3.372h6.441C73.222,75.487,90,71.666,90,53.508C90,44.353,86.798,35.58,80.985,28.806z
		 M70.142,25.266h-2.006l-0.083,0.002c-2.084,0.111-5.185,1.605-5.185,5.266v6.18c-0.823,0.553-1.663,1.344-2.427,2.462
		c-0.469-0.433-0.84-0.877-0.919-1.222c-0.017-0.072-0.015-0.089,0.032-0.157c0.698-1.003,2.397-4.555,1.088-7.613
		c-0.467-1.09-1.464-2.411-3.572-3.198c2.212-1.907,4.701-3.564,7.277-4.481C66.439,23.265,68.37,24.194,70.142,25.266z
		 M56.465,38.654c0.159,0.693,0.529,1.335,0.986,1.908h-1.271c-0.047-0.067-0.092-0.138-0.141-0.2
		c-2.356-2.945-0.141-6.166-0.051-6.295l-2.543-1.834c-1.3,1.802-2.941,6.229,0.146,10.087c0.322,0.402,0.612,1.561,0.786,2.776
		h-4.943c-0.641-0.972-2.152-3.841-0.747-7.654c0.57-1.546,2.805-4.914,5.929-8.137l-0.041,0.263
		c1.701,0.263,2.773,0.885,3.185,1.848c0.693,1.619-0.343,3.962-0.778,4.587C56.428,36.798,56.25,37.714,56.465,38.654z
		 M56.472,20.606c1.144,0.152,2.258,0.341,3.331,0.578c-7.096,4.072-12.854,11.904-14.06,15.175
		c-1.362,3.696-0.688,6.764,0.157,8.738h-4.086c-0.462,0-0.902,0.024-1.321,0.067c-0.536-1.504-1.33-4.238-1.092-6.734l-3.121-0.297
		c-0.281,2.952,0.541,6.008,1.169,7.829c-0.259,0.117-0.5,0.246-0.735,0.382c-1.333-1.28-3.689-4.219-2.695-8.314
		c0.064-0.168,0.513-1.252,1.693-1.863c1.196-0.62,2.809-0.601,4.796,0.051l1.305,0.429l0.597-1.237
		C42.46,35.307,47.362,25.315,56.472,20.606z M26.842,48.936c-1.294,0.689-2.903,0.511-3.124,0.24
		c-0.002-0.005-0.005-0.023-0.006-0.053l0.472-2.452l-3.079-0.593l-0.494,2.564l-0.023,0.174c-0.097,1.243,0.432,2.34,1.452,3.008
		c0.782,0.513,1.766,0.727,2.77,0.727c1.256,0,2.544-0.336,3.504-0.847c1.477-0.786,3.417-0.675,4.622-0.494
		c-0.277,0.897-0.403,1.758-0.413,2.469v0.058h-9.205l-0.088,0.002c-0.029,0.001-2.295,0.093-3.55-1.422
		c-1.035-1.249-1.218-3.428-0.529-6.301l-3.049-0.731c-0.947,3.948-0.547,6.999,1.191,9.066c1.963,2.337,4.947,2.525,5.855,2.525
		c0.088,0,0.157-0.002,0.203-0.004h9.171v1.623H23.17l-0.198,0.009c-0.033,0.002-0.137,0.009-0.295,0.009
		c-0.804,0-2.871-0.152-4.701-1.565c-2.379-1.836-3.585-5.181-3.585-9.943c0-0.822,0.075-1.652,0.212-2.487l2.597,0.53l0.627-3.072
		l-2.436-0.497c0.511-1.458,1.213-2.909,2.088-4.331c1.464-0.826,4.301-2.152,7.272-2.037c5.63,0.233,8.724-4.138,8.853-4.325
		l-2.574-1.792c-0.091,0.128-2.292,3.146-6.152,2.983c-1.276-0.051-2.516,0.104-3.671,0.368c6.55-6.879,17.258-12.124,29.652-12.124
		c0.101,0,0.203,0.005,0.305,0.006c-0.842,0.617-1.639,1.264-2.389,1.927c-2.144-0.24-9.905-0.765-14.809,3.384l2.026,2.394
		c2.768-2.343,6.945-2.796,9.783-2.794c-0.895,0.991-1.695,1.97-2.398,2.901c-0.933-0.186-5.516-0.938-7.808,1.717l2.373,2.049
		c0.65-0.751,2.15-0.909,3.413-0.853c-0.478,0.753-0.869,1.415-1.153,1.924c-2.277-0.527-4.267-0.358-5.932,0.503
		c-1.02,0.528-1.741,1.227-2.243,1.881c-4.325-0.092-7.258,2.553-8.219,5.27c-0.674,1.908-0.29,3.64,0.976,4.414
		c0.118,0.072,0.431,0.263,0.055,0.934l2.7,1.595c0.774-1.29,1.136-3.668-0.927-5.08c-0.024-0.35,0.171-1.233,0.916-2.134
		c0.515-0.622,1.532-1.523,3.219-1.794c-0.655,4.652,1.724,8.02,3.43,9.778C32.743,47.955,29.484,47.529,26.842,48.936z
		 M54.743,71.097l-0.13,0.002c-0.245,0-1.524-0.028-2.638-0.573c-0.886-0.434-1.394-1.064-1.586-1.985h4.952
		c0.055,0.002,0.132,0.005,0.229,0.005c0.094,0,0.211-0.004,0.339-0.011c0.172,0.726,0.522,1.641,1.233,2.563H54.743z
		 M55.506,65.409l-5.208-0.002v-0.001h-2.123l-2.444-0.001v0.001h-4.674l-0.021-0.001l-0.042,0.002c-1.235,0-5.263-0.34-5.263-4.717
		v-2.195h-0.072v-4.794c0.008-0.56,0.25-5.469,6.156-5.469h26.118v-3.136H57.54c-0.051-0.423-0.122-0.902-0.219-1.399h6.275v-3.136
		h-0.271c1.648-2.079,3.504-2.006,3.601-2l0.273-3.124c-0.06-0.006-0.514-0.043-1.195,0.055v-4.958c0-1.8,1.645-2.088,2.187-2.133
		h5.471v-0.669c1.101,0.894,2.122,1.85,3.066,2.858c-1.116,0.356-2.309,1.019-3.169,2.256l2.574,1.791
		c0.728-1.046,2.123-1.267,2.886-1.306c0.739,0.995,1.411,2.026,2.024,3.084h-3.828v3.136h5.434
		c1.856,4.175,2.816,8.641,2.942,12.981c-1.399,0.613-3.491,1.531-5.92,2.597v-2.145h-3.136v3.522
		c-1.738,0.764-3.555,1.562-5.35,2.351v-5.207h0.424c0.178,0.009,1.781,0.007,2.954-1.139c0.517-0.505,1.132-1.419,1.132-2.91
		v-3.821h-3.136v3.821c0,0.293,0,0.902-0.915,0.914H44.815c-4.036,0-6.446,1.968-6.446,5.263v2.844c0,4.671,4.683,4.671,6.446,4.671
		h13.28v-3.136h-13.28c-3.31,0-3.31-0.711-3.31-1.535v-2.844c0-0.582,0-2.128,3.31-2.128l23.233-0.001v1.713H45.144V58.5h22.905
		v1.739c-5.442,2.397-10.051,4.437-10.621,4.721C56.446,65.45,55.513,65.409,55.506,65.409z M62.506,71.097
		c-2.772-1.034-3.43-2.604-3.578-3.38c0.311-0.147,1.136-0.518,2.347-1.057c0.458,1.12,1.432,2.865,3.381,4.437H62.506z
		 M69.919,71.097h-1.71c-3.386-1.585-4.734-3.977-5.219-5.199c0.518-0.229,1.069-0.473,1.655-0.732
		c0.978,1.245,3.329,4.04,6.001,5.829C70.202,71.072,69.939,71.097,69.919,71.097z M73.324,70.336
		c-0.606-0.25-1.218-0.603-1.818-1.019c2.36-0.325,5-0.999,7.35-1.706C76.942,68.978,74.947,69.823,73.324,70.336z M82.077,64.578
		c-3.301,1.153-8.834,2.886-12.645,3.045c-0.277-0.259-0.546-0.521-0.803-0.782c6.743-2.082,12.357-4.181,15.347-5.347
		C83.438,62.653,82.795,63.679,82.077,64.578z M84.862,59.121c-2.174,0.876-9.059,3.574-17.652,6.187
		c-0.299-0.343-0.562-0.658-0.782-0.929c5.791-2.555,13.636-5.999,19.038-8.367C85.342,57.127,85.137,58.162,84.862,59.121z
		 M76.889,44.288c0.083-0.001,0.386,0.042,0.485,0.137c0.019,0.018,0.048,0.107,0.048,0.271c0,3.114,2.26,6.789,6.448,7.468
		l0.501-3.095c-2.778-0.45-3.813-2.921-3.813-4.372c0-1.294-0.553-2.095-1.017-2.538c-1.025-0.98-2.382-1.008-2.748-1.004h-1.836
		c0.097-1.775-0.02-4.111-1.075-5.445c-0.559-0.706-1.317-1.108-2.194-1.163c-1.015-0.064-1.518-0.505-1.494-1.284l0.004-2.381
		H67.06v2.235c-0.013,0.38,0.009,1.845,1.064,3.051c0.543,0.621,1.557,1.382,3.316,1.506c0.333,0.39,0.469,1.87,0.371,3.481h-5.059
		v3.136h10.065L76.889,44.288z"/>
	<g>
		<polygon style="fill:#019FE3;" points="277,81 277,74 222,74 222,81 214,81 214,90 222.812,90 279.108,90 286,90 286,81 		"/>
		<path style="fill:#019FE3;" d="M250.804,15.034c-7.571,0-13.709,3.966-13.709,8.966H231v48h38V24h-4.487
			C264.513,19,258.375,15.034,250.804,15.034z"/>
		<path style="fill:#019FE3;" d="M229,22h5.964c1.573-6,7.968-8.966,15.84-8.966S265.071,16,266.643,22H271v50h2V19h-4.67
			c-2.67-5-9.559-8.966-17.526-8.966c-7.967,0-14.857,3.966-17.526,8.966H227v53h2V22z"/>
	</g>
	<path style="fill:#019FE3;" d="M189.641,85.068l-18.036-16.281c0.785-1.064,1.343-2.214,1.587-3.329l0.032-0.215
		c0.57-6.955,0.086-7.392-0.476-7.896l-38.017-34.327c-1.111-1.005-2.832-0.916-3.838,0.196l-1.413,1.564l-3.529-3.186l0.685-0.761
		c2.321-2.571,2.8-5.53,1.133-7.033c-1.666-1.502-4.559-0.726-6.88,1.844l-8.768,9.706c-2.321,2.571-2.796,5.528-1.134,7.032
		c1.669,1.504,4.562,0.729,6.883-1.841l0.685-0.758l3.529,3.187l-1.415,1.565c-1.002,1.112-0.915,2.832,0.196,3.836l38.02,34.332
		c1.662,1.496,8.051-0.362,8.115-0.386c1.084-0.359,2.173-1.03,3.149-1.917l18.035,16.284c0.446,0.4,1.133,0.367,1.536-0.082
		C190.121,86.163,190.089,85.474,189.641,85.068z M170.254,64.973c-0.421,1.704-2.635,3.707-4.276,4.247
		c-1.729,0.574-4.292,0.859-5.194,0.808l-37.327-33.71l1.412-1.562c1.002-1.112,0.916-2.835-0.196-3.84l-6.354-5.736l-2.872,3.18
		c-0.893,0.988-1.733,1.381-2.169,1.491c0.063-0.446,0.37-1.321,1.263-2.31l8.768-9.709c0.891-0.991,1.732-1.384,2.169-1.491
		c-0.061,0.443-0.368,1.32-1.263,2.31l-2.87,3.177l6.354,5.739c1.114,1.001,2.835,0.915,3.838-0.197l1.415-1.565l5.406,4.881
		c-0.051,0.039-0.104,0.063-0.148,0.114l-5.911,6.545c-0.402,0.443-0.367,1.13,0.079,1.533c0.444,0.402,1.133,0.367,1.536-0.077
		l5.91-6.547c0.042-0.05,0.06-0.107,0.094-0.161l1.537,1.387c-0.051,0.038-0.107,0.061-0.152,0.108l-4.453,4.934
		c-0.403,0.446-0.37,1.134,0.076,1.536c0.447,0.403,1.134,0.365,1.539-0.079l4.451-4.934c0.045-0.048,0.064-0.102,0.095-0.158
		l1.536,1.387c-0.048,0.037-0.105,0.06-0.148,0.108l-5.913,6.547c-0.4,0.444-0.367,1.131,0.079,1.533
		c0.444,0.405,1.134,0.37,1.536-0.077l5.91-6.544c0.045-0.051,0.063-0.108,0.095-0.162l1.537,1.385
		c-0.051,0.039-0.105,0.063-0.152,0.11l-1.847,2.046c-0.098,0.075-0.202,0.139-0.289,0.235l-4.771,5.246
		c-0.583,0.643-0.68,1.508-0.208,1.936l17.389,16.092l0.016,0.012l0.753,0.687c0.026,0.025,0.066,0.028,0.094,0.047l3.342,2.892
		c0,0,2.771-0.2,4.741-2.104c2.351-2.281,1.998-5.306,1.998-5.306l-3.271-3.075c-0.009-0.007-0.012-0.02-0.018-0.026l-0.747-0.68
		L148.05,41.793l1.051-1.163c0.044-0.05,0.063-0.104,0.095-0.159l21,18.963C170.848,61.456,170.889,62.42,170.254,64.973z
		 M162.653,65.122c0.295,0.275,0.311,0.738,0.037,1.033c-0.146,0.152-0.339,0.232-0.536,0.232c-0.177,0-0.355-0.066-0.497-0.197
		l-16.833-15.653c-0.295-0.275-0.311-0.738-0.037-1.033c0.276-0.294,0.738-0.311,1.033-0.037L162.653,65.122z"/>
</g>
</svg>
